<svg xmlns="http://www.w3.org/2000/svg" xmlns:xlink="http://www.w3.org/1999/xlink" width="500" zoomAndPan="magnify" viewBox="0 0 375 374.999991" height="500" preserveAspectRatio="xMidYMid meet" version="1.0"><defs><filter x="0%" y="0%" width="100%" height="100%" id="98a7a89e11"><feColorMatrix values="0 0 0 0 1 0 0 0 0 1 0 0 0 0 1 0 0 0 1 0" color-interpolation-filters="sRGB"/></filter><g/><clipPath id="c4ab3272eb"><path d="M 120.289062 83.109375 L 254.539062 83.109375 L 254.539062 244.359375 L 120.289062 244.359375 Z M 120.289062 83.109375 " clip-rule="nonzero"/></clipPath><clipPath id="fb76493a90"><path d="M 120.289062 83.109375 L 188 83.109375 L 188 244.359375 L 120.289062 244.359375 Z M 120.289062 83.109375 " clip-rule="nonzero"/></clipPath><mask id="0067e53db7"><g filter="url(#98a7a89e11)"><rect x="-37.5" width="450" fill="#000000" y="-37.499999" height="449.999989" fill-opacity="0.15"/></g></mask><clipPath id="b98e37e119"><path d="M 0.289062 0.109375 L 67.679688 0.109375 L 67.679688 161.359375 L 0.289062 161.359375 Z M 0.289062 0.109375 " clip-rule="nonzero"/></clipPath><clipPath id="a5ba06127a"><rect x="0" width="68" y="0" height="162"/></clipPath><clipPath id="52385946eb"><path d="M 277 57 L 332 57 L 332 109.257812 L 277 109.257812 Z M 277 57 " clip-rule="nonzero"/></clipPath><clipPath id="1dde6aa330"><path d="M 78 288 L 93 288 L 93 314.773438 L 78 314.773438 Z M 78 288 " clip-rule="nonzero"/></clipPath><clipPath id="397e75258a"><path d="M 48.386719 267.523438 L 95.636719 267.523438 L 95.636719 282 L 48.386719 282 Z M 48.386719 267.523438 " clip-rule="nonzero"/></clipPath><clipPath id="e44e7f9a29"><path d="M 50 280 L 95 280 L 95 314.773438 L 50 314.773438 Z M 50 280 " clip-rule="nonzero"/></clipPath><clipPath id="2502e34fbf"><path d="M 44 57 L 96 57 L 96 109 L 44 109 Z M 44 57 " clip-rule="nonzero"/></clipPath><clipPath id="655a402d6d"><path d="M 85.140625 62.523438 C 84.027344 62.519531 82.941406 62.691406 81.882812 63.03125 C 81.695312 62.660156 81.488281 62.296875 81.257812 61.945312 C 81.027344 61.597656 80.777344 61.261719 80.507812 60.941406 C 80.238281 60.625 79.949219 60.320312 79.644531 60.035156 C 79.339844 59.75 79.015625 59.484375 78.679688 59.234375 C 78.34375 58.988281 77.992188 58.761719 77.628906 58.554688 C 77.265625 58.347656 76.890625 58.164062 76.503906 58 C 76.117188 57.839844 75.722656 57.703125 75.324219 57.585938 C 74.921875 57.472656 74.511719 57.378906 74.101562 57.3125 C 73.6875 57.246094 73.269531 57.203125 72.851562 57.183594 C 72.433594 57.167969 72.019531 57.175781 71.601562 57.207031 C 71.183594 57.238281 70.769531 57.292969 70.359375 57.375 C 69.949219 57.453125 69.542969 57.558594 69.144531 57.6875 C 68.75 57.816406 68.359375 57.96875 67.980469 58.140625 C 67.597656 58.316406 67.230469 58.511719 66.871094 58.730469 C 66.515625 58.949219 66.171875 59.1875 65.84375 59.445312 C 65.515625 59.707031 65.203125 59.984375 64.90625 60.277344 L 47.066406 78.113281 C 46.585938 78.605469 46.15625 79.144531 45.777344 79.722656 C 45.398438 80.300781 45.082031 80.910156 44.824219 81.550781 C 44.566406 82.1875 44.371094 82.847656 44.242188 83.527344 C 44.113281 84.203125 44.050781 84.890625 44.054688 85.578125 C 44.058594 86.269531 44.128906 86.953125 44.265625 87.628906 C 44.40625 88.308594 44.605469 88.964844 44.871094 89.601562 C 45.140625 90.238281 45.464844 90.84375 45.847656 91.417969 C 46.234375 91.988281 46.667969 92.519531 47.15625 93.007812 C 47.644531 93.496094 48.175781 93.933594 48.75 94.316406 C 49.324219 94.703125 49.929688 95.027344 50.566406 95.292969 C 51.203125 95.558594 51.859375 95.761719 52.539062 95.898438 C 53.214844 96.039062 53.898438 96.109375 54.589844 96.113281 C 55.277344 96.117188 55.964844 96.054688 56.640625 95.921875 C 57.320312 95.792969 57.976562 95.601562 58.617188 95.339844 C 59.257812 95.082031 59.867188 94.765625 60.445312 94.386719 C 61.023438 94.007812 61.558594 93.578125 62.054688 93.097656 L 74.53125 80.609375 L 74.53125 98.347656 C 74.53125 99.042969 74.601562 99.734375 74.734375 100.414062 C 74.871094 101.097656 75.070312 101.761719 75.339844 102.40625 C 75.605469 103.050781 75.929688 103.660156 76.316406 104.238281 C 76.703125 104.820312 77.144531 105.355469 77.636719 105.847656 C 78.128906 106.339844 78.664062 106.78125 79.242188 107.167969 C 79.820312 107.554688 80.433594 107.878906 81.078125 108.148438 C 81.71875 108.414062 82.382812 108.613281 83.066406 108.75 C 83.75 108.886719 84.4375 108.953125 85.136719 108.953125 C 85.832031 108.953125 86.519531 108.886719 87.203125 108.75 C 87.886719 108.613281 88.550781 108.414062 89.195312 108.148438 C 89.835938 107.878906 90.449219 107.554688 91.027344 107.167969 C 91.605469 106.78125 92.140625 106.339844 92.632812 105.847656 C 93.125 105.355469 93.566406 104.820312 93.953125 104.238281 C 94.339844 103.660156 94.667969 103.050781 94.933594 102.40625 C 95.199219 101.761719 95.398438 101.097656 95.535156 100.414062 C 95.671875 99.734375 95.738281 99.042969 95.738281 98.347656 L 95.738281 73.121094 C 95.738281 72.425781 95.667969 71.734375 95.53125 71.054688 C 95.394531 70.371094 95.195312 69.707031 94.929688 69.066406 C 94.660156 68.425781 94.335938 67.8125 93.949219 67.234375 C 93.5625 66.65625 93.121094 66.121094 92.632812 65.628906 C 92.140625 65.136719 91.605469 64.699219 91.027344 64.3125 C 90.449219 63.925781 89.835938 63.597656 89.195312 63.332031 C 88.550781 63.066406 87.890625 62.863281 87.207031 62.726562 C 86.523438 62.59375 85.835938 62.523438 85.140625 62.523438 Z M 66.464844 61.832031 C 66.855469 61.457031 67.28125 61.125 67.738281 60.835938 C 68.195312 60.546875 68.675781 60.300781 69.179688 60.105469 C 69.6875 59.90625 70.203125 59.757812 70.738281 59.660156 C 71.269531 59.566406 71.808594 59.519531 72.347656 59.527344 C 72.890625 59.535156 73.425781 59.59375 73.957031 59.703125 C 74.488281 59.8125 75.003906 59.972656 75.503906 60.183594 C 76 60.394531 76.476562 60.652344 76.925781 60.953125 C 77.375 61.257812 77.792969 61.597656 78.175781 61.980469 C 78.558594 62.363281 78.902344 62.78125 79.203125 63.230469 C 79.507812 63.679688 79.761719 64.152344 79.972656 64.652344 C 80.183594 65.152344 80.347656 65.667969 80.457031 66.195312 C 80.570312 66.726562 80.628906 67.261719 80.636719 67.804688 C 80.644531 68.347656 80.597656 68.882812 80.5 69.417969 C 80.40625 69.949219 80.257812 70.46875 80.0625 70.972656 C 79.863281 71.476562 79.621094 71.960938 79.328125 72.417969 C 79.039062 72.875 78.707031 73.300781 78.335938 73.691406 L 69.898438 82.140625 L 58.027344 70.265625 Z M 60.488281 91.542969 C 60.09375 91.914062 59.667969 92.246094 59.210938 92.535156 C 58.753906 92.824219 58.273438 93.070312 57.769531 93.265625 C 57.261719 93.464844 56.746094 93.609375 56.210938 93.707031 C 55.679688 93.804688 55.140625 93.847656 54.597656 93.839844 C 54.058594 93.832031 53.519531 93.773438 52.992188 93.664062 C 52.460938 93.550781 51.945312 93.390625 51.445312 93.179688 C 50.949219 92.96875 50.472656 92.710938 50.023438 92.410156 C 49.574219 92.105469 49.160156 91.761719 48.777344 91.378906 C 48.394531 90.996094 48.050781 90.582031 47.75 90.132812 C 47.445312 89.679688 47.191406 89.207031 46.980469 88.707031 C 46.769531 88.207031 46.609375 87.695312 46.496094 87.164062 C 46.386719 86.632812 46.328125 86.097656 46.320312 85.554688 C 46.3125 85.011719 46.359375 84.476562 46.457031 83.941406 C 46.554688 83.410156 46.699219 82.890625 46.898438 82.386719 C 47.097656 81.882812 47.339844 81.402344 47.628906 80.945312 C 47.921875 80.488281 48.253906 80.0625 48.625 79.667969 L 56.46875 71.824219 L 68.339844 83.695312 Z M 91.054688 104.28125 C 90.46875 104.867188 89.808594 105.355469 89.078125 105.746094 C 88.347656 106.132812 87.574219 106.410156 86.761719 106.570312 C 85.945312 106.730469 85.128906 106.773438 84.304688 106.691406 C 83.476562 106.609375 82.683594 106.410156 81.917969 106.089844 C 81.148438 105.773438 80.445312 105.351562 79.804688 104.828125 C 79.164062 104.300781 78.613281 103.691406 78.152344 103.003906 C 77.691406 102.316406 77.339844 101.574219 77.097656 100.78125 C 76.859375 99.988281 76.738281 99.175781 76.734375 98.347656 L 76.734375 87.253906 L 93.535156 87.253906 L 93.535156 98.347656 C 93.539062 99.460938 93.328125 100.53125 92.898438 101.558594 C 92.472656 102.589844 91.867188 103.496094 91.074219 104.28125 Z M 93.535156 85.050781 L 76.734375 85.050781 L 76.734375 78.40625 L 79.878906 75.261719 C 80.878906 74.269531 81.644531 73.125 82.183594 71.824219 C 82.722656 70.523438 82.988281 69.171875 82.984375 67.765625 C 82.984375 66.863281 82.871094 65.976562 82.648438 65.101562 C 83.457031 64.851562 84.28125 64.726562 85.128906 64.726562 C 85.679688 64.726562 86.226562 64.777344 86.765625 64.886719 C 87.308594 64.992188 87.832031 65.152344 88.34375 65.363281 C 88.851562 65.574219 89.335938 65.832031 89.796875 66.136719 C 90.253906 66.445312 90.679688 66.792969 91.070312 67.183594 C 91.460938 67.570312 91.808594 67.996094 92.113281 68.453125 C 92.421875 68.914062 92.679688 69.398438 92.890625 69.90625 C 93.105469 70.414062 93.265625 70.941406 93.371094 71.480469 C 93.480469 72.023438 93.535156 72.570312 93.535156 73.121094 Z M 93.535156 85.050781 " clip-rule="nonzero"/></clipPath><clipPath id="f29b553e57"><path d="M 277 265 L 329 265 L 329 317.417969 L 277 317.417969 Z M 277 265 " clip-rule="nonzero"/></clipPath><clipPath id="85bee2cf9e"><path d="M 318.289062 270.6875 C 317.179688 270.683594 316.09375 270.851562 315.03125 271.195312 C 314.84375 270.820312 314.636719 270.460938 314.40625 270.109375 C 314.175781 269.761719 313.925781 269.425781 313.65625 269.105469 C 313.386719 268.785156 313.101562 268.484375 312.792969 268.199219 C 312.488281 267.914062 312.167969 267.644531 311.832031 267.398438 C 311.492188 267.152344 311.144531 266.921875 310.777344 266.71875 C 310.414062 266.511719 310.039062 266.328125 309.652344 266.164062 C 309.269531 266.003906 308.875 265.863281 308.472656 265.75 C 308.070312 265.632812 307.664062 265.542969 307.25 265.476562 C 306.835938 265.410156 306.421875 265.367188 306.003906 265.347656 C 305.585938 265.332031 305.167969 265.339844 304.75 265.371094 C 304.332031 265.402344 303.917969 265.457031 303.507812 265.539062 C 303.097656 265.617188 302.695312 265.722656 302.296875 265.851562 C 301.898438 265.980469 301.507812 266.132812 301.128906 266.304688 C 300.75 266.480469 300.378906 266.675781 300.023438 266.894531 C 299.667969 267.113281 299.324219 267.351562 298.996094 267.609375 C 298.664062 267.867188 298.351562 268.144531 298.058594 268.441406 L 280.21875 286.277344 C 279.734375 286.769531 279.304688 287.308594 278.925781 287.886719 C 278.550781 288.464844 278.230469 289.074219 277.972656 289.710938 C 277.714844 290.351562 277.519531 291.011719 277.390625 291.691406 C 277.261719 292.367188 277.199219 293.054688 277.203125 293.742188 C 277.207031 294.433594 277.277344 295.117188 277.417969 295.792969 C 277.554688 296.46875 277.757812 297.128906 278.023438 297.765625 C 278.289062 298.402344 278.613281 299.007812 279 299.582031 C 279.382812 300.152344 279.820312 300.683594 280.308594 301.171875 C 280.796875 301.660156 281.328125 302.097656 281.902344 302.480469 C 282.472656 302.867188 283.078125 303.191406 283.71875 303.457031 C 284.355469 303.722656 285.011719 303.925781 285.6875 304.0625 C 286.363281 304.199219 287.046875 304.273438 287.738281 304.277344 C 288.429688 304.28125 289.113281 304.21875 289.792969 304.085938 C 290.46875 303.957031 291.128906 303.761719 291.769531 303.503906 C 292.410156 303.246094 293.019531 302.929688 293.597656 302.550781 C 294.175781 302.171875 294.710938 301.742188 295.203125 301.261719 L 307.683594 288.773438 L 307.683594 306.511719 C 307.683594 307.207031 307.75 307.894531 307.886719 308.578125 C 308.019531 309.261719 308.222656 309.925781 308.488281 310.570312 C 308.753906 311.210938 309.082031 311.824219 309.46875 312.402344 C 309.855469 312.980469 310.292969 313.519531 310.785156 314.011719 C 311.277344 314.503906 311.8125 314.941406 312.394531 315.328125 C 312.972656 315.71875 313.582031 316.042969 314.226562 316.308594 C 314.871094 316.578125 315.535156 316.777344 316.214844 316.914062 C 316.898438 317.050781 317.589844 317.117188 318.285156 317.117188 C 318.980469 317.117188 319.671875 317.050781 320.355469 316.914062 C 321.039062 316.777344 321.699219 316.578125 322.34375 316.308594 C 322.988281 316.042969 323.597656 315.71875 324.175781 315.328125 C 324.757812 314.941406 325.292969 314.503906 325.785156 314.011719 C 326.277344 313.519531 326.714844 312.980469 327.101562 312.402344 C 327.488281 311.824219 327.816406 311.210938 328.082031 310.570312 C 328.347656 309.925781 328.550781 309.261719 328.683594 308.578125 C 328.820312 307.894531 328.886719 307.207031 328.886719 306.511719 L 328.886719 281.285156 C 328.886719 280.589844 328.820312 279.898438 328.683594 279.21875 C 328.546875 278.535156 328.34375 277.871094 328.078125 277.230469 C 327.8125 276.585938 327.484375 275.976562 327.097656 275.398438 C 326.710938 274.820312 326.273438 274.285156 325.78125 273.792969 C 325.289062 273.300781 324.753906 272.863281 324.175781 272.476562 C 323.597656 272.089844 322.988281 271.761719 322.34375 271.496094 C 321.703125 271.230469 321.039062 271.027344 320.359375 270.890625 C 319.675781 270.753906 318.988281 270.6875 318.289062 270.6875 Z M 299.613281 269.996094 C 300.007812 269.621094 300.429688 269.289062 300.890625 269 C 301.347656 268.710938 301.828125 268.464844 302.332031 268.265625 C 302.835938 268.070312 303.355469 267.921875 303.886719 267.824219 C 304.421875 267.726562 304.957031 267.683594 305.5 267.691406 C 306.042969 267.695312 306.578125 267.757812 307.109375 267.867188 C 307.636719 267.976562 308.152344 268.136719 308.652344 268.347656 C 309.152344 268.558594 309.625 268.816406 310.074219 269.117188 C 310.523438 269.417969 310.941406 269.761719 311.324219 270.144531 C 311.707031 270.527344 312.050781 270.945312 312.355469 271.394531 C 312.65625 271.84375 312.914062 272.316406 313.125 272.816406 C 313.335938 273.316406 313.496094 273.828125 313.605469 274.359375 C 313.71875 274.890625 313.777344 275.425781 313.785156 275.96875 C 313.792969 276.511719 313.75 277.046875 313.652344 277.582031 C 313.554688 278.113281 313.40625 278.632812 313.210938 279.136719 C 313.015625 279.640625 312.769531 280.121094 312.480469 280.582031 C 312.191406 281.039062 311.859375 281.464844 311.484375 281.855469 L 303.046875 290.304688 L 291.179688 278.429688 Z M 293.636719 299.703125 C 293.242188 300.078125 292.820312 300.410156 292.359375 300.699219 C 291.902344 300.988281 291.421875 301.234375 290.917969 301.429688 C 290.414062 301.628906 289.894531 301.773438 289.363281 301.871094 C 288.828125 301.96875 288.289062 302.011719 287.75 302.003906 C 287.207031 301.996094 286.671875 301.9375 286.140625 301.828125 C 285.609375 301.714844 285.097656 301.554688 284.597656 301.34375 C 284.097656 301.132812 283.625 300.875 283.175781 300.574219 C 282.726562 300.269531 282.308594 299.925781 281.925781 299.542969 C 281.542969 299.160156 281.199219 298.742188 280.898438 298.292969 C 280.597656 297.84375 280.339844 297.371094 280.128906 296.871094 C 279.917969 296.371094 279.757812 295.855469 279.648438 295.328125 C 279.535156 294.796875 279.476562 294.261719 279.472656 293.71875 C 279.464844 293.175781 279.507812 292.640625 279.605469 292.105469 C 279.703125 291.574219 279.851562 291.054688 280.046875 290.550781 C 280.246094 290.046875 280.488281 289.566406 280.78125 289.109375 C 281.070312 288.652344 281.402344 288.226562 281.777344 287.832031 L 289.621094 279.988281 L 301.488281 291.859375 Z M 324.207031 312.445312 C 323.621094 313.03125 322.960938 313.519531 322.226562 313.90625 C 321.496094 314.296875 320.722656 314.574219 319.910156 314.734375 C 319.097656 314.894531 318.277344 314.933594 317.453125 314.851562 C 316.628906 314.773438 315.832031 314.570312 315.066406 314.253906 C 314.300781 313.9375 313.597656 313.515625 312.957031 312.988281 C 312.316406 312.464844 311.765625 311.855469 311.300781 311.167969 C 310.839844 310.476562 310.492188 309.738281 310.25 308.945312 C 310.007812 308.148438 309.886719 307.339844 309.886719 306.511719 L 309.886719 295.417969 L 326.683594 295.417969 L 326.683594 306.511719 C 326.6875 307.625 326.476562 308.695312 326.050781 309.722656 C 325.625 310.753906 325.015625 311.660156 324.226562 312.445312 Z M 326.683594 293.214844 L 309.886719 293.214844 L 309.886719 286.570312 L 313.03125 283.421875 C 314.027344 282.433594 314.796875 281.285156 315.332031 279.988281 C 315.871094 278.6875 316.136719 277.335938 316.132812 275.929688 C 316.132812 275.027344 316.023438 274.136719 315.796875 273.265625 C 316.605469 273.011719 317.433594 272.886719 318.277344 272.890625 C 318.828125 272.890625 319.375 272.941406 319.917969 273.050781 C 320.457031 273.15625 320.984375 273.316406 321.492188 273.527344 C 322.003906 273.738281 322.488281 273.996094 322.945312 274.300781 C 323.402344 274.609375 323.828125 274.957031 324.21875 275.34375 C 324.609375 275.734375 324.957031 276.160156 325.265625 276.617188 C 325.570312 277.074219 325.832031 277.558594 326.042969 278.070312 C 326.253906 278.578125 326.414062 279.105469 326.523438 279.644531 C 326.628906 280.1875 326.683594 280.730469 326.683594 281.285156 Z M 326.683594 293.214844 " clip-rule="nonzero"/></clipPath></defs><rect x="-37.5" width="450" fill="#ffffff" y="-37.499999" height="449.999989" fill-opacity="1"/><rect x="-37.5" width="450" fill="#ffffff" y="-37.499999" height="449.999989" fill-opacity="1"/><path fill="#2a1e4d" d="M 204.855469 309.566406 C 206.664062 309.308594 208.46875 309.007812 210.265625 308.667969 C 212.0625 308.332031 213.851562 307.953125 215.632812 307.53125 C 217.410156 307.113281 219.179688 306.65625 220.941406 306.15625 C 222.699219 305.660156 224.445312 305.121094 226.183594 304.546875 C 227.917969 303.96875 229.640625 303.355469 231.347656 302.703125 C 233.054688 302.050781 234.75 301.359375 236.425781 300.628906 C 238.101562 299.902344 239.761719 299.136719 241.40625 298.332031 C 243.046875 297.53125 244.671875 296.691406 246.277344 295.816406 C 247.882812 294.941406 249.46875 294.03125 251.035156 293.082031 C 252.597656 292.136719 254.140625 291.15625 255.664062 290.140625 C 257.183594 289.128906 258.683594 288.078125 260.15625 286.996094 C 261.628906 285.914062 263.078125 284.800781 264.503906 283.65625 C 265.929688 282.507812 267.328125 281.332031 268.699219 280.121094 C 270.070312 278.914062 271.414062 277.671875 272.730469 276.40625 C 274.046875 275.136719 275.335938 273.835938 276.59375 272.511719 C 277.851562 271.183594 279.082031 269.832031 280.277344 268.449219 C 281.476562 267.066406 282.644531 265.660156 283.777344 264.226562 C 284.914062 262.792969 286.015625 261.335938 287.085938 259.851562 C 288.15625 258.371094 289.195312 256.863281 290.195312 255.335938 C 291.199219 253.804688 292.167969 252.257812 293.101562 250.683594 C 294.035156 249.113281 294.933594 247.519531 295.796875 245.90625 C 296.660156 244.292969 297.484375 242.664062 298.273438 241.015625 C 299.066406 239.367188 299.816406 237.699219 300.53125 236.015625 C 301.246094 234.332031 301.925781 232.636719 302.566406 230.921875 C 303.203125 229.210938 303.804688 227.484375 304.367188 225.742188 C 304.929688 224.003906 305.453125 222.25 305.9375 220.488281 C 306.421875 218.726562 306.867188 216.953125 307.269531 215.167969 C 307.675781 213.386719 308.042969 211.59375 308.367188 209.792969 C 308.691406 207.996094 308.976562 206.1875 309.21875 204.378906 C 309.464844 202.566406 309.667969 200.75 309.832031 198.925781 C 309.996094 197.105469 310.117188 195.28125 310.199219 193.453125 C 310.28125 191.628906 310.320312 189.800781 310.320312 187.972656 C 310.324219 183.726562 310.105469 179.488281 309.671875 175.265625 L 340.726562 204.898438 C 340.921875 205.078125 341.140625 205.21875 341.386719 205.316406 C 341.632812 205.414062 341.886719 205.464844 342.152344 205.464844 C 342.417969 205.464844 342.671875 205.414062 342.917969 205.316406 C 343.164062 205.21875 343.382812 205.078125 343.578125 204.898438 L 374.578125 175.316406 C 374.859375 179.5 375.015625 183.71875 375.015625 187.972656 C 375.015625 285.640625 300.34375 365.859375 204.96875 374.671875 L 174.925781 342.621094 Z M 204.855469 309.566406 " fill-opacity="1" fill-rule="nonzero"/><path fill="#01b0b5" d="M 309.566406 170.144531 C 309.308594 168.332031 309.007812 166.53125 308.667969 164.734375 C 308.328125 162.9375 307.949219 161.148438 307.53125 159.371094 C 307.109375 157.589844 306.652344 155.820312 306.152344 154.0625 C 305.65625 152.304688 305.117188 150.558594 304.539062 148.820312 C 303.964844 147.085938 303.347656 145.367188 302.695312 143.660156 C 302.042969 141.949219 301.351562 140.257812 300.621094 138.582031 C 299.894531 136.90625 299.128906 135.246094 298.324219 133.605469 C 297.523438 131.960938 296.683594 130.335938 295.808594 128.734375 C 294.933594 127.128906 294.019531 125.542969 293.074219 123.980469 C 292.128906 122.414062 291.148438 120.871094 290.132812 119.351562 C 289.117188 117.832031 288.070312 116.335938 286.988281 114.859375 C 285.90625 113.386719 284.789062 111.9375 283.644531 110.515625 C 282.496094 109.089844 281.320312 107.691406 280.109375 106.320312 C 278.902344 104.949219 277.664062 103.605469 276.394531 102.289062 C 275.125 100.976562 273.828125 99.6875 272.5 98.429688 C 271.171875 97.171875 269.820312 95.945312 268.4375 94.746094 C 267.058594 93.550781 265.648438 92.382812 264.214844 91.246094 C 262.78125 90.113281 261.324219 89.011719 259.84375 87.941406 C 258.359375 86.871094 256.855469 85.835938 255.324219 84.832031 C 253.796875 83.832031 252.246094 82.863281 250.675781 81.929688 C 249.101562 80.996094 247.511719 80.097656 245.898438 79.238281 C 244.285156 78.375 242.65625 77.546875 241.007812 76.757812 C 239.355469 75.96875 237.691406 75.21875 236.007812 74.503906 C 234.328125 73.789062 232.628906 73.109375 230.914062 72.472656 C 229.203125 71.832031 227.476562 71.230469 225.738281 70.671875 C 223.996094 70.109375 222.246094 69.585938 220.484375 69.101562 C 218.71875 68.617188 216.949219 68.171875 215.164062 67.769531 C 213.382812 67.363281 211.589844 67 209.792969 66.675781 C 207.992188 66.347656 206.1875 66.066406 204.375 65.820312 C 202.5625 65.578125 200.746094 65.371094 198.925781 65.210938 C 197.105469 65.046875 195.28125 64.925781 193.457031 64.84375 C 191.628906 64.761719 189.800781 64.71875 187.972656 64.71875 C 183.726562 64.71875 179.492188 64.933594 175.265625 65.367188 L 204.898438 34.316406 C 205.082031 34.121094 205.222656 33.902344 205.324219 33.65625 C 205.421875 33.410156 205.472656 33.15625 205.472656 32.890625 C 205.472656 32.625 205.421875 32.367188 205.324219 32.121094 C 205.222656 31.875 205.082031 31.65625 204.898438 31.464844 L 175.320312 0.410156 C 179.5 0.136719 183.71875 -0.0195312 187.972656 -0.0195312 C 285.644531 -0.0195312 365.863281 74.664062 374.667969 170.027344 L 342.621094 200.074219 Z M 309.566406 170.144531 " fill-opacity="1" fill-rule="nonzero"/><path fill="#2a1e4d" d="M 170.144531 66.308594 C 168.335938 66.566406 166.53125 66.867188 164.734375 67.207031 C 162.9375 67.546875 161.152344 67.925781 159.371094 68.34375 C 157.59375 68.765625 155.824219 69.222656 154.0625 69.722656 C 152.304688 70.21875 150.558594 70.757812 148.824219 71.335938 C 147.089844 71.910156 145.367188 72.527344 143.660156 73.179688 C 141.953125 73.832031 140.261719 74.523438 138.585938 75.253906 C 136.90625 75.980469 135.25 76.746094 133.605469 77.550781 C 131.964844 78.351562 130.339844 79.191406 128.734375 80.066406 C 127.128906 80.945312 125.546875 81.855469 123.980469 82.800781 C 122.417969 83.746094 120.875 84.726562 119.355469 85.742188 C 117.832031 86.757812 116.335938 87.804688 114.863281 88.886719 C 113.390625 89.96875 111.941406 91.085938 110.515625 92.230469 C 109.09375 93.378906 107.695312 94.554688 106.324219 95.765625 C 104.953125 96.972656 103.609375 98.210938 102.292969 99.480469 C 100.976562 100.75 99.691406 102.046875 98.433594 103.375 C 97.171875 104.703125 95.945312 106.054688 94.75 107.4375 C 93.550781 108.816406 92.382812 110.226562 91.25 111.660156 C 90.113281 113.09375 89.011719 114.550781 87.941406 116.03125 C 86.875 117.515625 85.835938 119.019531 84.835938 120.550781 C 83.832031 122.078125 82.863281 123.628906 81.929688 125.199219 C 81 126.773438 80.101562 128.363281 79.238281 129.976562 C 78.375 131.589844 77.550781 133.21875 76.761719 134.867188 C 75.972656 136.519531 75.21875 138.183594 74.503906 139.867188 C 73.789062 141.550781 73.113281 143.246094 72.472656 144.960938 C 71.835938 146.671875 71.234375 148.398438 70.671875 150.136719 C 70.109375 151.878906 69.585938 153.628906 69.101562 155.390625 C 68.617188 157.15625 68.175781 158.929688 67.769531 160.710938 C 67.363281 162.492188 67 164.285156 66.675781 166.082031 C 66.351562 167.882812 66.066406 169.6875 65.820312 171.5 C 65.578125 173.3125 65.375 175.128906 65.210938 176.949219 C 65.046875 178.769531 64.925781 180.59375 64.84375 182.417969 C 64.761719 184.246094 64.722656 186.074219 64.722656 187.902344 C 64.71875 192.148438 64.9375 196.382812 65.371094 200.609375 L 34.273438 170.976562 C 34.078125 170.792969 33.859375 170.65625 33.613281 170.558594 C 33.367188 170.460938 33.113281 170.410156 32.847656 170.410156 C 32.582031 170.410156 32.328125 170.460938 32.082031 170.558594 C 31.835938 170.65625 31.617188 170.792969 31.421875 170.976562 L 0.421875 200.554688 C 0.140625 196.375 -0.015625 192.15625 -0.015625 187.902344 C -0.015625 90.230469 74.65625 10.011719 170.03125 1.199219 L 200.074219 33.253906 Z M 170.144531 66.308594 " fill-opacity="1" fill-rule="nonzero"/><path fill="#01b0b5" d="M 65.90625 204.855469 C 66.164062 206.664062 66.464844 208.46875 66.800781 210.265625 C 67.140625 212.0625 67.519531 213.851562 67.941406 215.628906 C 68.359375 217.410156 68.816406 219.179688 69.316406 220.9375 C 69.8125 222.699219 70.351562 224.445312 70.925781 226.179688 C 71.503906 227.917969 72.117188 229.636719 72.769531 231.347656 C 73.421875 233.054688 74.113281 234.746094 74.84375 236.425781 C 75.570312 238.101562 76.335938 239.761719 77.140625 241.402344 C 77.941406 243.046875 78.78125 244.671875 79.65625 246.277344 C 80.53125 247.882812 81.441406 249.46875 82.386719 251.03125 C 83.332031 252.597656 84.3125 254.140625 85.328125 255.660156 C 86.34375 257.183594 87.394531 258.679688 88.472656 260.152344 C 89.554688 261.628906 90.671875 263.078125 91.816406 264.503906 C 92.964844 265.925781 94.140625 267.324219 95.351562 268.695312 C 96.558594 270.070312 97.796875 271.414062 99.066406 272.730469 C 100.335938 274.046875 101.632812 275.332031 102.960938 276.59375 C 104.285156 277.851562 105.640625 279.078125 107.023438 280.277344 C 108.402344 281.476562 109.8125 282.640625 111.246094 283.777344 C 112.679688 284.914062 114.136719 286.015625 115.617188 287.085938 C 117.101562 288.15625 118.605469 289.191406 120.136719 290.195312 C 121.664062 291.199219 123.214844 292.167969 124.789062 293.101562 C 126.359375 294.035156 127.953125 294.933594 129.566406 295.792969 C 131.175781 296.65625 132.808594 297.484375 134.457031 298.273438 C 136.105469 299.0625 137.773438 299.816406 139.457031 300.53125 C 141.136719 301.246094 142.835938 301.921875 144.550781 302.5625 C 146.261719 303.203125 147.988281 303.804688 149.730469 304.367188 C 151.46875 304.929688 153.21875 305.453125 154.984375 305.9375 C 156.746094 306.417969 158.519531 306.863281 160.304688 307.269531 C 162.085938 307.675781 163.878906 308.039062 165.675781 308.363281 C 167.476562 308.691406 169.28125 308.972656 171.09375 309.21875 C 172.90625 309.464844 174.722656 309.667969 176.546875 309.828125 C 178.367188 309.992188 180.191406 310.117188 182.015625 310.199219 C 183.84375 310.277344 185.671875 310.320312 187.5 310.320312 C 191.746094 310.320312 195.984375 310.105469 200.207031 309.671875 L 170.574219 340.726562 C 170.390625 340.917969 170.253906 341.136719 170.15625 341.382812 C 170.058594 341.628906 170.007812 341.886719 170.007812 342.152344 C 170.007812 342.414062 170.058594 342.671875 170.15625 342.917969 C 170.253906 343.164062 170.390625 343.382812 170.574219 343.574219 L 200.15625 374.578125 C 195.972656 374.859375 191.753906 375.015625 187.5 375.015625 C 89.828125 375.015625 9.613281 300.339844 0.796875 204.96875 L 32.84375 174.921875 Z M 65.90625 204.855469 " fill-opacity="1" fill-rule="nonzero"/><g fill="#03045e" fill-opacity="1"><g transform="translate(80.251108, 212.341152)"><g><path d="M 20.828125 21.800781 L 30.285156 19.046875 C 37.058594 17.074219 42.148438 11.753906 39.144531 1.4375 L 37.480469 -4.273438 C 37.097656 -5.589844 35.660156 -6.378906 34.347656 -5.996094 L 3.5 2.984375 C 2.1875 3.367188 1.398438 4.804688 1.78125 6.117188 L 3.445312 11.832031 C 6.464844 22.199219 13.902344 23.816406 20.828125 21.800781 Z M 19.652344 17.753906 C 14.441406 19.273438 9.582031 18.21875 7.640625 11.542969 L 6.195312 6.589844 L 34.007812 -1.507812 L 35.449219 3.445312 C 37.363281 10.019531 34.113281 13.546875 29.105469 15.003906 Z M 19.652344 17.753906 "/></g></g></g><g fill="#03045e" fill-opacity="1"><g transform="translate(90.349946, 243.63835)"><g><path d="M 9.207031 8.652344 C 7.195312 5.4375 7.769531 2.777344 10.265625 1.214844 L 12.902344 -0.433594 C 13.613281 1.292969 14.511719 3.03125 15.351562 4.367188 C 18.675781 9.679688 22.574219 10.347656 26.679688 7.777344 C 31.097656 5.007812 32.417969 0.765625 29.316406 -4.191406 C 25.988281 -9.5 20.941406 -10.316406 16.65625 -7.632812 L 8.308594 -2.40625 C 4.113281 0.21875 2.71875 5.132812 5.875 10.175781 C 7.386719 12.585938 11.117188 16.960938 13.304688 15.589844 C 14.109375 15.089844 14.449219 13.945312 13.890625 13.050781 C 13.695312 12.738281 13.464844 12.570312 13.363281 12.511719 C 11.671875 11.394531 10.382812 10.523438 9.207031 8.652344 Z M 24.527344 4.339844 C 22.699219 5.484375 20.503906 6.050781 18.378906 2.65625 C 17.820312 1.765625 16.570312 -0.433594 15.757812 -2.222656 L 19.148438 -4.347656 C 21.648438 -5.914062 24.273438 -5.195312 26.089844 -2.292969 C 27.710938 0.292969 27.429688 2.523438 24.527344 4.339844 Z M 24.527344 4.339844 "/></g></g></g><g fill="#03045e" fill-opacity="1"><g transform="translate(104.574441, 265.483996)"><g><path d="M 15.648438 -11.945312 C 10.773438 -6.984375 15.511719 -1.8125 16.625 1.789062 C 16.972656 2.941406 17.054688 4.132812 15.726562 5.484375 C 13.808594 7.4375 11.605469 6.898438 9.539062 4.867188 C 8.035156 3.390625 7.277344 1.761719 6.632812 0.3125 C 6.554688 0.164062 6.554688 0.0898438 6.328125 -0.128906 C 5.429688 -1.015625 4.238281 -0.78125 3.609375 -0.144531 C 1.914062 1.585938 5.078125 5.578125 6.992188 7.460938 C 11.164062 11.558594 15.371094 11.558594 18.695312 8.175781 C 23.492188 3.292969 19.429688 -1.363281 18.089844 -5.1875 C 17.441406 -7.082031 17.542969 -8.164062 18.6875 -9.328125 C 20.382812 -11.054688 22.324219 -10.925781 24.613281 -8.671875 C 25.964844 -7.34375 26.386719 -6.34375 26.804688 -5.191406 C 26.917969 -4.855469 27.035156 -4.597656 27.296875 -4.339844 C 28.085938 -3.5625 29.277344 -3.648438 29.976562 -4.363281 C 31.527344 -5.941406 29 -9.457031 27.046875 -11.375 C 23.066406 -15.289062 18.820312 -15.175781 15.648438 -11.945312 Z M 15.648438 -11.945312 "/></g></g></g><g fill="#03045e" fill-opacity="1"><g transform="translate(122.227081, 282.301903)"><g><path d="M 6.886719 -6.640625 C 4.035156 -2.023438 4.214844 3.097656 9.816406 6.558594 C 11.921875 7.859375 16.429688 9.777344 17.730469 7.671875 C 18.230469 6.867188 18 5.734375 17.148438 5.207031 C 16.925781 5.070312 16.671875 4.976562 16.347656 4.902344 C 14.941406 4.773438 13.652344 4.65625 12.082031 3.6875 C 8.589844 1.53125 8.363281 -1.210938 10.382812 -4.480469 L 14.5625 -11.246094 C 16.582031 -14.515625 19.132812 -15.539062 22.628906 -13.382812 C 24.199219 -12.414062 24.878906 -11.3125 25.621094 -10.109375 C 25.835938 -9.851562 26.03125 -9.671875 26.253906 -9.53125 C 27.105469 -9.003906 28.222656 -9.308594 28.71875 -10.113281 C 30.019531 -12.21875 26.285156 -15.394531 24.179688 -16.695312 C 18.582031 -20.15625 13.917969 -18.019531 11.066406 -13.40625 Z M 6.886719 -6.640625 "/></g></g></g><g fill="#03045e" fill-opacity="1"><g transform="translate(142.735842, 294.829322)"><g><path d="M 20.65625 -8.9375 C 19.246094 -9.886719 17.621094 -10.683594 15.8125 -11.257812 C 9.894531 -13.148438 6.183594 -11.570312 4.613281 -6.652344 L 4.546875 -6.453125 C 3.105469 -1.9375 4.636719 1.921875 9.804688 3.574219 C 12.515625 4.4375 15.0625 4.257812 17.527344 3.109375 C 17.785156 4.90625 18.832031 6.289062 20.488281 6.820312 C 21.59375 7.171875 22.890625 7.089844 23.292969 5.835938 C 23.5625 4.980469 23.335938 3.96875 22.382812 3.664062 C 22.179688 3.601562 22.113281 3.632812 21.964844 3.585938 C 21.363281 3.394531 21.222656 2.796875 21.542969 1.792969 L 25.066406 -9.246094 C 27.179688 -15.867188 25.792969 -20.179688 19.523438 -22.183594 C 16.0625 -23.289062 11.992188 -23.535156 11.457031 -21.164062 C 11.269531 -20.394531 11.378906 -19.363281 12.332031 -19.058594 C 12.886719 -18.882812 13.601562 -19.042969 13.765625 -19.046875 C 15.0625 -19.292969 16.160156 -19.441406 17.914062 -18.882812 C 21.527344 -17.726562 22.738281 -15.460938 21.570312 -11.796875 Z M 14.707031 -7.964844 C 16.210938 -7.484375 18.085938 -6.609375 19.582031 -5.578125 L 17.851562 -0.160156 C 15.617188 0.785156 13.6875 0.941406 11.527344 0.253906 C 8.167969 -0.820312 7.644531 -2.8125 8.394531 -5.167969 L 8.460938 -5.371094 C 9.179688 -7.628906 10.59375 -9.277344 14.707031 -7.964844 Z M 14.707031 -7.964844 "/></g></g></g><g fill="#03045e" fill-opacity="1"><g transform="translate(170.042126, 302.723418)"><g><path d="M 9.699219 -18.714844 C 9.730469 -19.136719 9.71875 -19.613281 9.707031 -20.140625 C 12.488281 -21.871094 14.378906 -21.71875 16.527344 -21.492188 C 17.625 -21.351562 18.636719 -22.117188 18.742188 -23.429688 C 18.832031 -24.53125 18.273438 -25.472656 16.175781 -25.644531 C 14.179688 -25.804688 11.171875 -25.199219 8.800781 -23.964844 C 8.34375 -24.847656 7.65625 -25.484375 6.816406 -25.550781 C 5.816406 -25.632812 4.867188 -24.96875 4.777344 -23.867188 C 4.738281 -23.394531 4.875 -23.121094 5.058594 -22.789062 C 5.613281 -21.792969 5.742188 -20.777344 5.601562 -19.046875 L 4.171875 -1.300781 C 4.082031 -0.148438 4.902344 0.816406 6.054688 0.910156 C 7.210938 1.003906 8.175781 0.183594 8.269531 -0.972656 Z M 9.699219 -18.714844 "/></g></g></g><g fill="#03045e" fill-opacity="1"><g transform="translate(190.197408, 304.082293)"><g><path d="M 2.773438 -11.035156 C 3.523438 -3.808594 5.679688 -0.378906 13.011719 -1.136719 C 14.480469 -1.289062 15.976562 -1.65625 15.792969 -3.4375 C 15.617188 -5.113281 14.078125 -5.164062 12.875 -5.042969 C 12.558594 -5.007812 12.199219 -4.917969 11.882812 -4.886719 C 8.113281 -4.496094 7.382812 -6.429688 6.820312 -11.828125 L 5.742188 -22.25 L 11.1875 -22.816406 C 12.238281 -22.925781 12.988281 -23.847656 12.875 -24.949219 C 12.761719 -26.050781 11.835938 -26.800781 10.789062 -26.691406 L 5.339844 -26.128906 L 4.589844 -33.355469 C 4.476562 -34.457031 3.648438 -35.269531 2.339844 -35.136719 C 1.03125 -35 0.390625 -34.03125 0.503906 -32.933594 Z M 2.773438 -11.035156 "/></g></g></g><g fill="#03045e" fill-opacity="1"><g transform="translate(210.079605, 302.15309)"><g><path d="M 11.296875 -19.46875 C 9.597656 -19.390625 7.816406 -19.066406 6.023438 -18.453125 C 0.136719 -16.457031 -1.90625 -12.980469 -0.246094 -8.09375 L -0.179688 -7.894531 C 1.347656 -3.40625 4.871094 -1.210938 10.007812 -2.957031 C 12.703125 -3.871094 14.640625 -5.53125 15.941406 -7.917969 C 17.214844 -6.628906 18.882812 -6.136719 20.53125 -6.695312 C 21.625 -7.070312 22.621094 -7.910156 22.199219 -9.15625 C 21.910156 -10.003906 21.121094 -10.679688 20.175781 -10.359375 C 19.976562 -10.292969 19.941406 -10.222656 19.792969 -10.171875 C 19.195312 -9.96875 18.726562 -10.367188 18.386719 -11.363281 L 14.660156 -22.335938 C 12.425781 -28.917969 8.746094 -31.5625 2.511719 -29.441406 C -0.929688 -28.273438 -4.347656 -26.054688 -3.367188 -23.828125 C -3.066406 -23.097656 -2.359375 -22.335938 -1.414062 -22.660156 C -0.863281 -22.84375 -0.386719 -23.398438 -0.253906 -23.5 C 0.640625 -24.46875 1.4375 -25.238281 3.183594 -25.832031 C 6.773438 -27.054688 9.09375 -25.949219 10.332031 -22.308594 Z M 7.089844 -15.148438 C 8.585938 -15.65625 10.617188 -16.066406 12.429688 -16.125 L 14.261719 -10.742188 C 13.023438 -8.652344 11.566406 -7.378906 9.421875 -6.648438 C 6.082031 -5.515625 4.472656 -6.804688 3.679688 -9.148438 L 3.609375 -9.347656 C 2.847656 -11.589844 3 -13.757812 7.089844 -15.148438 Z M 7.089844 -15.148438 "/></g></g></g><g fill="#03045e" fill-opacity="1"><g transform="translate(237.725946, 292.40447)"><g><path d="M -5.691406 -22.078125 L -12.421875 -31.640625 L -6.738281 -35.640625 C -2.863281 -38.371094 -0.0546875 -37.125 1.554688 -34.84375 C 4.007812 -31.355469 2.0625 -27.535156 -0.738281 -25.566406 Z M 1.753906 -22.296875 C 5.546875 -24.964844 9.707031 -25 12.226562 -21.425781 C 14.40625 -18.324219 13.785156 -14.730469 9.476562 -11.695312 L 4.222656 -7.996094 L -3.324219 -18.71875 Z M 12.316406 -8.671875 C 18.128906 -12.765625 19.066406 -19.027344 15.640625 -23.894531 C 12.246094 -28.714844 7.847656 -27.550781 4.324219 -26.425781 C 6.570312 -30.003906 7.636719 -33.523438 5.027344 -37.226562 C 2.210938 -41.230469 -3.289062 -43.09375 -8.886719 -39.152344 L -16.164062 -34.027344 C -17.285156 -33.238281 -17.59375 -31.667969 -16.777344 -30.503906 L 1.6875 -4.28125 C 2.476562 -3.160156 4.046875 -2.851562 5.210938 -3.667969 Z M 12.316406 -8.671875 "/></g></g></g><g fill="#03045e" fill-opacity="1"><g transform="translate(263.54221, 273.141137)"><g><path d="M 5.238281 -11.496094 C 2.839844 -8.558594 0.136719 -8.25 -2.144531 -10.113281 L -4.554688 -12.078125 C -3.144531 -13.304688 -1.789062 -14.714844 -0.789062 -15.941406 C 3.171875 -20.796875 2.554688 -24.699219 -1.199219 -27.765625 C -5.238281 -31.0625 -9.683594 -30.949219 -13.378906 -26.417969 C -17.339844 -21.5625 -16.496094 -16.523438 -12.578125 -13.324219 L -4.949219 -7.097656 C -1.113281 -3.96875 3.988281 -4.222656 7.753906 -8.832031 C 9.550781 -11.035156 12.496094 -15.972656 10.496094 -17.605469 C 9.761719 -18.207031 8.566406 -18.160156 7.902344 -17.34375 C 7.667969 -17.058594 7.585938 -16.789062 7.558594 -16.671875 C 7.046875 -14.710938 6.636719 -13.210938 5.238281 -11.496094 Z M -3.765625 -24.621094 C -2.089844 -23.257812 -0.851562 -21.363281 -3.382812 -18.261719 C -4.046875 -17.445312 -5.730469 -15.554688 -7.164062 -14.210938 L -10.265625 -16.742188 C -12.550781 -18.605469 -12.710938 -21.320312 -10.546875 -23.972656 C -8.617188 -26.339844 -6.417969 -26.789062 -3.765625 -24.621094 Z M -3.765625 -24.621094 "/></g></g></g><g fill="#03045e" fill-opacity="1"><g transform="translate(281.690275, 252.013695)"><g><path d="M 9.621094 -31.519531 C 10.664062 -31.144531 11.738281 -31.484375 12.203125 -32.773438 C 12.664062 -34.0625 12.054688 -35.011719 11.015625 -35.386719 L -4.492188 -40.972656 C -9.496094 -42.777344 -13.96875 -41.085938 -15.898438 -35.734375 C -16.898438 -32.960938 -16.796875 -30.292969 -15.960938 -27.640625 C -18.039062 -26.988281 -19.574219 -25.527344 -20.558594 -22.800781 C -21.484375 -20.226562 -21.535156 -17.445312 -20.933594 -14.765625 C -21.90625 -14.554688 -22.683594 -14.109375 -22.984375 -13.265625 C -23.359375 -12.226562 -22.902344 -11.164062 -21.914062 -10.808594 C -21.417969 -10.628906 -21.03125 -10.769531 -20.796875 -10.796875 C -19.894531 -10.976562 -19.730469 -11.421875 -17.007812 -10.4375 L -0.160156 -4.367188 C 0.878906 -3.992188 1.953125 -4.335938 2.417969 -5.621094 C 2.882812 -6.910156 2.273438 -7.859375 1.230469 -8.234375 L -15.613281 -14.304688 C -16.058594 -14.464844 -16.574219 -14.59375 -17.203125 -14.707031 C -17.746094 -16.46875 -17.902344 -18.988281 -17.113281 -21.171875 C -15.847656 -24.6875 -13.15625 -24.390625 -9.636719 -23.121094 L 4.730469 -17.945312 C 5.769531 -17.570312 6.84375 -17.910156 7.308594 -19.199219 C 7.773438 -20.488281 7.164062 -21.433594 6.125 -21.808594 L -9.386719 -27.398438 C -10.175781 -27.683594 -10.957031 -27.851562 -11.703125 -27.953125 C -12.761719 -29.679688 -13.132812 -32.21875 -12.367188 -34.347656 C -11.277344 -37.371094 -8.5625 -38.074219 -5.785156 -37.074219 Z M 9.621094 -31.519531 "/></g></g></g><g clip-path="url(#c4ab3272eb)"><path fill="#ff914d" d="M 187.496094 83.109375 C 150.710938 83.109375 120.890625 112.933594 120.890625 149.71875 C 120.890625 200.300781 187.496094 244.324219 187.496094 244.324219 C 187.496094 244.324219 254.101562 200.300781 254.101562 149.71875 C 254.101562 112.933594 224.285156 83.109375 187.496094 83.109375 Z M 187.496094 83.109375 " fill-opacity="1" fill-rule="nonzero"/></g><g clip-path="url(#fb76493a90)"><g mask="url(#0067e53db7)"><g transform="matrix(1, 0, 0, 1, 120, 83)"><g clip-path="url(#a5ba06127a)"><g clip-path="url(#b98e37e119)"><path fill="#d8d8d8" d="M 67.496094 0.109375 C 30.710938 0.109375 0.890625 29.933594 0.890625 66.71875 C 0.890625 117.300781 67.496094 161.324219 67.496094 161.324219 Z M 67.496094 0.109375 " fill-opacity="1" fill-rule="nonzero"/></g></g></g></g></g><path fill="#2a1e4d" d="M 239.265625 149.71875 C 239.265625 151.414062 239.183594 153.105469 239.015625 154.792969 C 238.851562 156.480469 238.601562 158.152344 238.269531 159.816406 C 237.941406 161.480469 237.527344 163.121094 237.035156 164.746094 C 236.542969 166.367188 235.972656 167.960938 235.324219 169.527344 C 234.675781 171.09375 233.953125 172.625 233.152344 174.121094 C 232.351562 175.617188 231.484375 177.070312 230.539062 178.476562 C 229.597656 179.886719 228.589844 181.25 227.515625 182.558594 C 226.4375 183.871094 225.300781 185.125 224.101562 186.324219 C 222.902344 187.523438 221.648438 188.660156 220.339844 189.734375 C 219.027344 190.8125 217.667969 191.820312 216.257812 192.761719 C 214.847656 193.703125 213.394531 194.574219 211.898438 195.375 C 210.40625 196.171875 208.875 196.898438 207.308594 197.546875 C 205.742188 198.195312 204.148438 198.765625 202.523438 199.257812 C 200.902344 199.75 199.257812 200.160156 197.597656 200.492188 C 195.933594 200.820312 194.257812 201.070312 192.570312 201.238281 C 190.882812 201.402344 189.191406 201.484375 187.496094 201.484375 C 185.800781 201.484375 184.109375 201.402344 182.421875 201.238281 C 180.734375 201.070312 179.058594 200.820312 177.398438 200.492188 C 175.734375 200.160156 174.089844 199.75 172.46875 199.257812 C 170.847656 198.765625 169.253906 198.195312 167.6875 197.546875 C 166.121094 196.898438 164.589844 196.171875 163.09375 195.375 C 161.597656 194.574219 160.144531 193.703125 158.734375 192.761719 C 157.324219 191.820312 155.964844 190.8125 154.65625 189.734375 C 153.34375 188.660156 152.089844 187.523438 150.890625 186.324219 C 149.691406 185.125 148.554688 183.871094 147.480469 182.558594 C 146.402344 181.25 145.394531 179.886719 144.453125 178.476562 C 143.511719 177.070312 142.640625 175.617188 141.839844 174.121094 C 141.042969 172.625 140.316406 171.09375 139.667969 169.527344 C 139.019531 167.960938 138.449219 166.367188 137.957031 164.746094 C 137.464844 163.121094 137.054688 161.480469 136.722656 159.816406 C 136.390625 158.152344 136.144531 156.480469 135.976562 154.792969 C 135.8125 153.105469 135.726562 151.414062 135.726562 149.71875 C 135.726562 148.023438 135.8125 146.332031 135.976562 144.644531 C 136.144531 142.957031 136.390625 141.28125 136.722656 139.617188 C 137.054688 137.953125 137.464844 136.3125 137.957031 134.691406 C 138.449219 133.066406 139.019531 131.472656 139.667969 129.90625 C 140.316406 128.339844 141.042969 126.808594 141.839844 125.3125 C 142.640625 123.816406 143.511719 122.367188 144.453125 120.957031 C 145.394531 119.546875 146.402344 118.1875 147.480469 116.875 C 148.554688 115.566406 149.691406 114.308594 150.890625 113.109375 C 152.089844 111.914062 153.34375 110.773438 154.65625 109.699219 C 155.964844 108.625 157.324219 107.613281 158.734375 106.671875 C 160.144531 105.730469 161.597656 104.859375 163.09375 104.0625 C 164.589844 103.261719 166.121094 102.539062 167.6875 101.890625 C 169.253906 101.242188 170.847656 100.667969 172.46875 100.175781 C 174.089844 99.683594 175.734375 99.273438 177.398438 98.941406 C 179.058594 98.613281 180.734375 98.363281 182.421875 98.199219 C 184.109375 98.03125 185.800781 97.949219 187.496094 97.949219 C 189.191406 97.949219 190.882812 98.03125 192.570312 98.199219 C 194.257812 98.363281 195.933594 98.613281 197.597656 98.941406 C 199.257812 99.273438 200.902344 99.683594 202.523438 100.175781 C 204.148438 100.667969 205.742188 101.242188 207.308594 101.890625 C 208.875 102.539062 210.40625 103.261719 211.898438 104.0625 C 213.394531 104.859375 214.847656 105.730469 216.257812 106.671875 C 217.667969 107.613281 219.027344 108.625 220.339844 109.699219 C 221.648438 110.773438 222.902344 111.914062 224.101562 113.109375 C 225.300781 114.308594 226.4375 115.566406 227.515625 116.875 C 228.589844 118.1875 229.597656 119.546875 230.539062 120.957031 C 231.484375 122.367188 232.351562 123.816406 233.152344 125.3125 C 233.953125 126.808594 234.675781 128.339844 235.324219 129.90625 C 235.972656 131.472656 236.542969 133.066406 237.035156 134.691406 C 237.527344 136.3125 237.941406 137.953125 238.269531 139.617188 C 238.601562 141.28125 238.851562 142.957031 239.015625 144.644531 C 239.183594 146.332031 239.265625 148.023438 239.265625 149.71875 Z M 239.265625 149.71875 " fill-opacity="1" fill-rule="nonzero"/><path fill="#d8d8d8" d="M 214.554688 124.488281 C 209.113281 119.046875 200.289062 119.046875 194.847656 124.488281 L 160.914062 158.421875 C 155.472656 163.863281 155.472656 172.6875 160.914062 178.128906 C 166.351562 183.5625 175.175781 183.5625 180.617188 178.128906 L 214.554688 144.191406 C 219.996094 138.753906 219.996094 129.933594 214.554688 124.488281 Z M 210.175781 128.867188 C 213.195312 131.882812 213.195312 136.796875 210.175781 139.8125 L 193.207031 156.777344 L 182.261719 145.832031 L 199.230469 128.867188 C 202.246094 125.847656 207.152344 125.847656 210.175781 128.867188 Z M 210.175781 128.867188 " fill-opacity="1" fill-rule="nonzero"/><g clip-path="url(#52385946eb)"><path fill="#ffffff" d="M 328.550781 84.308594 L 326.324219 84.308594 L 326.324219 107.140625 C 326.304688 107.453125 326.226562 107.75 326.09375 108.027344 C 325.957031 108.308594 325.773438 108.550781 325.539062 108.761719 C 325.308594 108.96875 325.042969 109.125 324.75 109.226562 C 324.457031 109.332031 324.15625 109.375 323.84375 109.359375 L 310.691406 109.359375 L 310.691406 93.792969 C 310.691406 93.574219 310.648438 93.367188 310.566406 93.167969 C 310.484375 92.96875 310.367188 92.792969 310.214844 92.640625 C 310.0625 92.488281 309.886719 92.371094 309.6875 92.289062 C 309.488281 92.207031 309.28125 92.164062 309.066406 92.164062 L 299.523438 92.164062 C 299.304688 92.164062 299.097656 92.207031 298.898438 92.289062 C 298.699219 92.371094 298.523438 92.488281 298.371094 92.640625 C 298.21875 92.792969 298.101562 92.96875 298.019531 93.167969 C 297.9375 93.367188 297.894531 93.574219 297.894531 93.792969 L 297.894531 109.359375 L 284.742188 109.359375 C 284.429688 109.375 284.128906 109.332031 283.835938 109.226562 C 283.542969 109.125 283.28125 108.96875 283.050781 108.761719 C 282.820312 108.558594 282.636719 108.3125 282.5 108.035156 C 282.367188 107.753906 282.289062 107.460938 282.269531 107.148438 L 282.269531 84.308594 L 280.035156 84.308594 C 277.554688 84.308594 276.210938 81.976562 277.835938 80.480469 L 302.308594 57.855469 C 302.617188 57.59375 302.960938 57.394531 303.34375 57.253906 C 303.722656 57.117188 304.113281 57.046875 304.519531 57.046875 C 304.921875 57.046875 305.3125 57.117188 305.695312 57.257812 C 306.074219 57.398438 306.417969 57.601562 306.722656 57.863281 C 314.734375 65.40625 322.75 72.945312 330.769531 80.488281 C 332.363281 82 331.023438 84.308594 328.550781 84.308594 Z M 328.550781 84.308594 " fill-opacity="1" fill-rule="nonzero"/></g><path fill="#ffffff" d="M 54.523438 290.914062 L 54.523438 292.503906 L 55.964844 290.914062 Z M 54.523438 290.914062 " fill-opacity="1" fill-rule="nonzero"/><path fill="#ffffff" d="M 66.984375 290.914062 L 61.9375 290.914062 L 54.523438 299.085938 L 54.523438 302.644531 L 56.34375 302.644531 Z M 66.984375 290.914062 " fill-opacity="1" fill-rule="nonzero"/><path fill="#ffffff" d="M 57.019531 290.914062 L 54.523438 293.664062 L 54.523438 297.925781 L 60.886719 290.914062 Z M 57.019531 290.914062 " fill-opacity="1" fill-rule="nonzero"/><path fill="#ffffff" d="M 62.097656 302.644531 L 72.738281 290.914062 L 68.039062 290.914062 L 57.394531 302.644531 Z M 62.097656 302.644531 " fill-opacity="1" fill-rule="nonzero"/><g clip-path="url(#1dde6aa330)"><path fill="#ffffff" d="M 78.566406 314.992188 L 92.179688 314.992188 L 92.179688 288.953125 L 78.566406 288.953125 Z M 80.09375 302.195312 C 80.09375 301.726562 80.472656 301.34375 80.945312 301.34375 L 83.847656 301.34375 C 84.316406 301.34375 84.699219 301.726562 84.699219 302.195312 L 84.699219 302.519531 C 84.699219 302.988281 84.316406 303.371094 83.847656 303.371094 L 80.945312 303.371094 C 80.472656 303.371094 80.09375 302.988281 80.09375 302.519531 Z M 80.09375 302.195312 " fill-opacity="1" fill-rule="nonzero"/></g><path fill="#ffffff" d="M 73.226562 302.644531 L 73.226562 297.789062 L 68.820312 302.644531 Z M 73.226562 302.644531 " fill-opacity="1" fill-rule="nonzero"/><path fill="#ffffff" d="M 67.769531 302.644531 L 73.226562 296.628906 L 73.226562 291.535156 L 63.148438 302.644531 Z M 67.769531 302.644531 " fill-opacity="1" fill-rule="nonzero"/><path fill="#ffffff" d="M 52.46875 304.605469 L 75.28125 304.605469 L 75.28125 288.953125 L 52.46875 288.953125 Z M 53.746094 290.527344 C 53.746094 290.308594 53.921875 290.136719 54.136719 290.136719 L 73.617188 290.136719 C 73.636719 290.136719 73.652344 290.144531 73.671875 290.148438 C 73.699219 290.152344 73.730469 290.152344 73.757812 290.164062 C 73.785156 290.175781 73.804688 290.191406 73.828125 290.207031 C 73.84375 290.21875 73.863281 290.222656 73.878906 290.238281 C 73.882812 290.238281 73.882812 290.242188 73.882812 290.246094 C 73.90625 290.265625 73.921875 290.292969 73.9375 290.316406 C 73.949219 290.332031 73.964844 290.347656 73.972656 290.367188 C 73.980469 290.386719 73.980469 290.410156 73.988281 290.429688 C 73.992188 290.457031 74.003906 290.488281 74.003906 290.515625 C 74.003906 290.519531 74.007812 290.523438 74.007812 290.527344 L 74.007812 303.035156 C 74.007812 303.25 73.832031 303.421875 73.617188 303.421875 L 54.132812 303.421875 C 53.917969 303.421875 53.746094 303.25 53.746094 303.035156 Z M 53.746094 290.527344 " fill-opacity="1" fill-rule="nonzero"/><path fill="#ffffff" d="M 69.078125 270.132812 C 68.953125 270.15625 68.828125 270.191406 68.710938 270.238281 C 68.429688 270.355469 68.183594 270.550781 68 270.804688 L 67.550781 271.4375 C 67.015625 272.183594 67.191406 273.222656 67.9375 273.753906 L 70.03125 275.25 C 70.339844 273.800781 71.160156 272.699219 72.476562 271.964844 L 70.316406 270.421875 C 69.957031 270.164062 69.515625 270.0625 69.078125 270.132812 Z M 69.078125 270.132812 " fill-opacity="1" fill-rule="nonzero"/><g clip-path="url(#397e75258a)"><path fill="#ffffff" d="M 48.386719 267.558594 L 48.386719 279.691406 C 48.542969 279.902344 49.011719 280.460938 49.921875 280.960938 C 49.941406 280.96875 49.957031 280.980469 49.972656 280.988281 C 50.871094 281.472656 52.183594 281.898438 54.035156 281.898438 C 58.238281 281.898438 59.679688 279.703125 59.738281 279.609375 C 59.8125 279.496094 59.949219 279.414062 60.070312 279.425781 C 60.207031 279.425781 60.332031 279.496094 60.402344 279.609375 C 60.460938 279.703125 61.902344 281.898438 66.105469 281.898438 C 70.308594 281.898438 71.75 279.703125 71.8125 279.609375 C 71.882812 279.496094 72.007812 279.425781 72.140625 279.425781 C 72.277344 279.429688 72.402344 279.496094 72.472656 279.609375 C 72.53125 279.703125 73.972656 281.898438 78.175781 281.898438 C 82.378906 281.898438 83.824219 279.703125 83.882812 279.609375 C 83.953125 279.496094 84.078125 279.425781 84.210938 279.425781 C 84.210938 279.425781 84.214844 279.425781 84.214844 279.425781 C 84.347656 279.429688 84.472656 279.496094 84.542969 279.609375 C 84.601562 279.703125 86.042969 281.898438 90.246094 281.898438 C 92.097656 281.898438 93.410156 281.472656 94.308594 280.988281 C 94.324219 280.980469 94.339844 280.96875 94.359375 280.964844 C 95.269531 280.460938 95.738281 279.90625 95.894531 279.695312 L 95.894531 267.558594 Z M 76.621094 276.964844 L 76.171875 277.59375 C 75.902344 277.96875 75.542969 278.257812 75.125 278.429688 C 74.953125 278.5 74.773438 278.550781 74.585938 278.582031 C 73.941406 278.691406 73.296875 278.539062 72.765625 278.160156 L 67.484375 274.386719 C 66.386719 273.605469 66.132812 272.078125 66.917969 270.984375 L 67.367188 270.355469 C 67.746094 269.824219 68.308594 269.472656 68.949219 269.367188 C 69.59375 269.257812 70.238281 269.410156 70.769531 269.789062 L 76.054688 273.5625 C 77.148438 274.34375 77.402344 275.871094 76.621094 276.964844 Z M 76.621094 276.964844 " fill-opacity="1" fill-rule="nonzero"/></g><g clip-path="url(#e44e7f9a29)"><path fill="#ffffff" d="M 84.214844 280.441406 C 83.53125 281.191406 81.738281 282.679688 78.175781 282.679688 C 74.617188 282.679688 72.824219 281.191406 72.140625 280.441406 C 71.460938 281.191406 69.664062 282.679688 66.105469 282.679688 C 62.546875 282.679688 60.75 281.191406 60.070312 280.441406 C 59.390625 281.191406 57.59375 282.679688 54.035156 282.679688 C 52.394531 282.679688 51.132812 282.359375 50.179688 281.945312 L 50.179688 314.992188 L 77.789062 314.992188 L 77.789062 288.5625 C 77.789062 288.347656 77.960938 288.175781 78.175781 288.175781 L 92.570312 288.175781 C 92.785156 288.175781 92.957031 288.347656 92.957031 288.5625 L 92.957031 314.992188 L 94.105469 314.992188 L 94.105469 281.945312 C 93.148438 282.359375 91.890625 282.679688 90.25 282.679688 C 86.691406 282.679688 84.894531 281.191406 84.214844 280.441406 Z M 76.0625 304.992188 C 76.0625 305.207031 75.886719 305.382812 75.671875 305.382812 L 52.082031 305.382812 C 51.867188 305.382812 51.691406 305.207031 51.691406 304.992188 L 51.691406 288.566406 C 51.691406 288.351562 51.867188 288.175781 52.082031 288.175781 L 75.671875 288.175781 C 75.886719 288.175781 76.0625 288.351562 76.0625 288.566406 Z M 76.0625 304.992188 " fill-opacity="1" fill-rule="nonzero"/></g><g clip-path="url(#2502e34fbf)"><g clip-path="url(#655a402d6d)"><path fill="#ffffff" d="M 44.050781 57.167969 L 44.050781 108.953125 L 95.738281 108.953125 L 95.738281 57.167969 Z M 44.050781 57.167969 " fill-opacity="1" fill-rule="nonzero"/></g></g><g clip-path="url(#f29b553e57)"><g clip-path="url(#85bee2cf9e)"><path fill="#ffffff" d="M 277.199219 265.332031 L 277.199219 317.117188 L 328.886719 317.117188 L 328.886719 265.332031 Z M 277.199219 265.332031 " fill-opacity="1" fill-rule="nonzero"/></g></g></svg>