<?xml version="1.0" encoding="UTF-8" standalone="no"?>
<!-- Created with Inkscape (http://www.inkscape.org/) -->

<svg
   width="203.69023mm"
   height="225.3981mm"
   viewBox="0 0 203.69023 225.3981"
   version="1.1"
   id="svg234"
   xml:space="preserve"
   inkscape:version="1.2.1 (9c6d41e410, 2022-07-14)"
   sodipodi:docname="Logov2.svg"
   inkscape:export-filename="Logov2.svg"
   inkscape:export-xdpi="102.62627"
   inkscape:export-ydpi="102.62627"
   xmlns:inkscape="http://www.inkscape.org/namespaces/inkscape"
   xmlns:sodipodi="http://sodipodi.sourceforge.net/DTD/sodipodi-0.dtd"
   xmlns:xlink="http://www.w3.org/1999/xlink"
   xmlns="http://www.w3.org/2000/svg"
   xmlns:svg="http://www.w3.org/2000/svg"><sodipodi:namedview
     id="namedview236"
     pagecolor="#ffffff"
     bordercolor="#eeeeee"
     borderopacity="1"
     inkscape:showpageshadow="true"
     inkscape:pageopacity="0"
     inkscape:pagecheckerboard="0"
     inkscape:deskcolor="#505050"
     inkscape:document-units="mm"
     showgrid="false"
     inkscape:zoom="0.80827857"
     inkscape:cx="32.785726"
     inkscape:cy="319.19688"
     inkscape:window-width="1920"
     inkscape:window-height="1057"
     inkscape:window-x="1358"
     inkscape:window-y="-8"
     inkscape:window-maximized="1"
     inkscape:current-layer="layer1" /><defs
     id="defs231"><linearGradient
       inkscape:collect="always"
       id="linearGradient4814"><stop
         style="stop-color:#000080;stop-opacity:1;"
         offset="0"
         id="stop4810" /><stop
         style="stop-color:#000080;stop-opacity:0;"
         offset="1"
         id="stop4812" /></linearGradient><linearGradient
       inkscape:collect="always"
       xlink:href="#linearGradient4814"
       id="linearGradient4816"
       x1="152.58064"
       y1="236.32259"
       x2="77.354836"
       y2="69.548386"
       gradientUnits="userSpaceOnUse"
       gradientTransform="matrix(0.71600121,0,0,0.71600121,30.555057,35.198048)" /></defs><g
     inkscape:label="Camada 1"
     inkscape:groupmode="layer"
     id="layer1"
     transform="translate(-5.0420608,-41.702339)"><circle
       style="display:inline;fill:#22bb00;fill-opacity:1;stroke-width:0.241684"
       id="path238-0-2"
       cx="106.88718"
       cy="143.5472"
       r="101.84486"
       inkscape:label="circulo-verde"
       inkscape:export-filename="logo-2.svg"
       inkscape:export-xdpi="149.63937"
       inkscape:export-ydpi="149.63937" /><circle
       style="display:inline;fill:#00ffff;fill-opacity:1;stroke-width:0.230175"
       id="path238-0"
       cx="107.00903"
       cy="143.68378"
       r="96.994293"
       inkscape:label="circulo-azul-claro" /><circle
       style="display:inline;fill:url(#linearGradient4816);fill-opacity:1;fill-rule:nonzero;stroke-width:0.230175"
       id="circle4790"
       cx="106.97011"
       cy="144.13338"
       r="96.994293"
       inkscape:label="circulo-azul-escuro" /><path
       style="fill:#ffffff;stroke-width:0.350875"
       d="m 98.437549,124.49385 20.047651,-19.63174 1.99646,-1.58052 c 0,0 11.56276,-10.481349 25.12197,0.0831 12.22747,11.0488 3.58547,24.98497 1.39961,27.29932 -1.66037,1.75796 -22.27913,22.52869 -22.27913,22.52869 1.65931,0.75567 -21.46403,-3.17147 -26.286561,-28.69893 z"
       id="path1743"
       sodipodi:nodetypes="ccccsccc"
       inkscape:label="branco cima" /><path
       style="display:inline;fill:#ffffff;stroke-width:0.350875"
       d="m 118.65482,158.85436 -20.424041,19.23987 -2.02669,1.54157 c 0,0 -11.763535,10.25549 -25.115639,-0.56958 -12.011243,-11.2835 -3.101003,-25.04972 -0.87074,-27.32131 1.694094,-1.72547 26.623069,-25.80037 26.623069,-25.80037 -2.00172,2.06748 6.112021,26.60735 26.441971,28.99798 z"
       id="path1743-3"
       sodipodi:nodetypes="ccccsccc"
       inkscape:label="branco-baixo" /><path
       style="display:inline;opacity:0.148;fill:#000000;stroke-width:0.341526"
       d="m 100.3612,127.86991 19.58142,-19.12815 1.95881,-1.55015 c 0,0 11.31354,-10.235382 25.11457,-0.59038 12.48111,10.1392 4.16796,23.56901 2.03701,25.81925 -1.61869,1.70927 -21.74442,21.93143 -21.74442,21.93143 2.35955,0.26847 -22.33062,-3.24368 -28.013121,-25.10412 z"
       id="path1743-6"
       sodipodi:nodetypes="ccccsccc"
       inkscape:label="sombra-cima" /><path
       style="display:inline;opacity:0.195286;fill:#000000;stroke-width:0.350875"
       d="m 119.67556,162.46223 -20.149781,19.5269 -2.00468,1.5701 c 0,0 -11.617269,10.42089 -25.121194,-0.21419 -12.169678,-11.11243 -3.455096,-25.00334 -1.257196,-27.30625 1.669511,-1.74927 26.12302,-25.30452 26.12302,-25.30452 -0.45193,2.43926 9.303731,24.13454 29.101921,24.50731 z"
       id="path1743-3-6"
       sodipodi:nodetypes="ccccsccc"
       inkscape:label="sombra-baixo" /><g
       aria-label="Descarte"
       id="text843"
       style="font-size:19.6448px;line-height:0;clip-rule:evenodd;fill:#6d6e71;fill-rule:evenodd;stroke-width:0.306951;image-rendering:optimizeQuality;shape-rendering:geometricPrecision;text-rendering:geometricPrecision"><path
         d="m 22.468225,242.60582 q 2.834376,0 4.86393,0.59487 2.029553,0.55988 3.324268,1.78461 1.294715,1.18974 1.889584,3.07932 0.629861,1.85459 0.629861,4.40903 v 4.75896 q 0,2.55443 -0.629861,4.44402 -0.594869,1.85459 -1.889584,3.07932 -1.294715,1.18974 -3.324268,1.78461 -2.029554,0.55987 -4.86393,0.55987 H 6.0918297 q -1.0497689,0 -1.0497689,-1.04977 v -22.39507 q 0,-1.04977 1.0497689,-1.04977 z M 10.395882,261.7816 q 0,0.4549 0.4549,0.4549 h 11.477474 q 1.539661,0 2.58943,-0.27993 1.049769,-0.27994 1.67963,-0.9098 0.664854,-0.62987 0.944792,-1.67963 0.279939,-1.04977 0.279939,-2.58943 v -3.84916 q 0,-1.53966 -0.279939,-2.58943 -0.279938,-1.04977 -0.944792,-1.67963 -0.629861,-0.62986 -1.67963,-0.9098 -1.049769,-0.27994 -2.58943,-0.27994 H 10.850782 q -0.4549,0 -0.4549,0.4899 z"
         style="font-size:34.9923px;line-height:0.75;font-family:Conthrax;-inkscape-font-specification:Conthrax;text-align:center;text-anchor:middle"
         id="path1314" /><path
         d="m 55.256037,247.88966 q 1.784607,0 2.939353,0.31493 1.189738,0.27994 1.854592,0.97979 0.699846,0.66485 0.979784,1.7846 0.279939,1.08477 0.279939,2.65942 v 3.32427 q 0,1.11975 -0.489892,1.57465 -0.489893,0.41991 -1.504669,0.41991 H 41.644033 v 0.83981 q 0,1.64464 0.769831,2.37948 0.804823,0.73484 3.079322,0.73484 h 14.591788 q 0.629862,0 0.629862,0.62986 v 2.93935 q 0,0.62986 -0.629862,0.62986 h -15.08168 q -2.379476,0 -3.989122,-0.38491 -1.574654,-0.38492 -2.554438,-1.22473 -0.944792,-0.87481 -1.3647,-2.20452 -0.419907,-1.3647 -0.419907,-3.25428 v -5.03889 q 0,-1.88959 0.419907,-3.21929 0.419908,-1.3647 1.3647,-2.20452 0.979784,-0.87481 2.554438,-1.25972 1.609646,-0.41991 3.989122,-0.41991 z m -13.612004,7.94325 h 14.171881 q 0.594869,0 0.594869,-0.59487 v -1.46967 q 0,-1.08476 -0.4549,-1.53966 -0.4549,-0.4549 -1.67963,-0.4549 h -8.783067 q -2.274499,0 -3.079322,0.73484 -0.769831,0.69984 -0.769831,2.37947 z"
         style="font-size:34.9923px;line-height:0.75;font-family:Conthrax;-inkscape-font-specification:Conthrax;text-align:center;text-anchor:middle"
         id="path1316" /><path
         d="m 87.203992,247.88966 q 0.629861,0 0.629861,0.62986 v 2.79939 q 0,0.62986 -0.629861,0.62986 H 71.422465 q -1.084761,0 -1.504669,0.41991 -0.419907,0.38491 -0.419907,1.15474 v 0.52489 q 0,0.69984 0.419907,1.11975 0.419908,0.38491 1.504669,0.38491 H 83.21487 q 2.939353,0 4.199076,1.22474 1.259722,1.22473 1.259722,3.46423 v 1.95957 q 0,1.15475 -0.279938,2.06455 -0.279939,0.9098 -0.944792,1.53966 -0.629862,0.62986 -1.67963,0.97978 -1.049769,0.31493 -2.589431,0.31493 H 65.263821 q -0.629862,0 -0.629862,-0.62986 v -2.79938 q 0,-0.62986 0.629862,-0.62986 H 81.85017 q 1.084761,0 1.504669,-0.38492 0.4549,-0.38491 0.4549,-1.29471 v -0.9448 q 0,-0.69984 -0.4549,-1.08476 -0.419908,-0.38491 -1.504669,-0.38491 H 70.092758 q -2.939353,0 -4.199076,-1.18974 -1.259723,-1.22473 -1.259723,-3.53422 v -1.53966 q 0,-1.08476 0.279939,-1.95957 0.279938,-0.9098 0.9098,-1.53966 0.664853,-0.62986 1.714622,-0.9448 1.049769,-0.34992 2.58943,-0.34992 z"
         style="font-size:34.9923px;line-height:0.75;font-family:Conthrax;-inkscape-font-specification:Conthrax;text-align:center;text-anchor:middle"
         id="path1318" /><path
         d="m 114.00812,247.88966 q 0.62987,0 0.62987,0.62986 v 2.93936 q 0,0.62986 -0.62987,0.62986 h -13.57701 q -1.154743,0 -1.889581,0.20995 -0.734838,0.17496 -1.154746,0.62986 -0.419907,0.41991 -0.594869,1.18974 -0.174961,0.73484 -0.174961,1.8196 v 3.11431 q 0,1.11976 0.174961,1.8546 0.174962,0.73483 0.594869,1.18973 0.419908,0.41991 1.154746,0.62987 0.734838,0.17496 1.889581,0.17496 h 13.57701 q 0.62987,0 0.62987,0.62986 v 2.93935 q 0,0.62986 -0.62987,0.62986 H 99.941221 q -2.379476,0 -3.989122,-0.38491 -1.574653,-0.38492 -2.554438,-1.22473 -0.944792,-0.87481 -1.364699,-2.20452 -0.419908,-1.3647 -0.419908,-3.25428 v -5.03889 q 0,-1.88959 0.419908,-3.21929 0.419907,-1.3647 1.364699,-2.20452 0.979785,-0.87481 2.554438,-1.25972 1.609646,-0.41991 3.989122,-0.41991 z"
         style="font-size:34.9923px;line-height:0.75;font-family:Conthrax;-inkscape-font-specification:Conthrax;text-align:center;text-anchor:middle"
         id="path1320" /><path
         d="m 133.49883,247.88966 q 2.34449,0 3.95413,0.41991 1.60965,0.38491 2.55444,1.25972 0.97979,0.83982 1.39969,2.20452 0.41991,1.3297 0.41991,3.21929 v 9.30795 q 0,0.83981 -0.13997,1.39969 -0.10498,0.52489 -0.41991,0.83982 -0.27993,0.31493 -0.76983,0.4549 -0.48989,0.10497 -1.25972,0.10497 h -16.65633 q -1.53966,0 -2.58943,-0.27994 -1.01478,-0.31493 -1.64464,-0.90979 -0.62986,-0.59487 -0.9098,-1.53967 -0.24495,-0.94479 -0.24495,-2.2395 v -1.67963 q 0,-1.08476 0.24495,-1.92458 0.27994,-0.87481 0.9098,-1.46968 0.62986,-0.59487 1.64464,-0.8748 1.04977,-0.31493 2.58943,-0.31493 h 14.24186 v -0.66486 q 0,-0.83981 -0.17496,-1.43468 -0.17496,-0.59487 -0.59487,-0.94479 -0.41991,-0.38492 -1.15474,-0.55988 -0.73484,-0.17496 -1.88959,-0.17496 h -14.62678 q -0.62986,0 -0.62986,-0.62986 v -2.93936 q 0,-0.62986 0.62986,-0.62986 z m 2.3095,15.36162 q 0.55987,0 0.76983,-0.24495 0.24494,-0.27993 0.24494,-0.94479 v -3.07932 h -12.80718 q -1.08476,0 -1.53966,0.4549 -0.41991,0.41991 -0.41991,1.25972 v 0.73484 q 0,0.94479 0.41991,1.39969 0.4549,0.41991 1.53966,0.41991 z"
         style="font-size:34.9923px;line-height:0.75;font-family:Conthrax;-inkscape-font-specification:Conthrax;text-align:center;text-anchor:middle"
         id="path1322" /><path
         d="m 163.5922,247.88966 q 0.62986,0 0.62986,0.62986 v 2.93936 q 0,0.62986 -0.62986,0.62986 h -9.30795 q -1.11976,0 -1.8546,0.20995 -0.73483,0.17496 -1.18973,0.62986 -0.41991,0.41991 -0.59487,1.18974 -0.17497,0.73484 -0.17497,1.8196 v 10.39271 q 0,0.76983 -0.76983,0.76983 h -3.42924 q -0.80482,0 -0.80482,-0.76983 v -11.3375 q 0,-1.88959 0.4199,-3.21929 0.41991,-1.3647 1.3647,-2.20452 0.97979,-0.87481 2.55444,-1.25972 1.60965,-0.41991 3.98912,-0.41991 z"
         style="font-size:34.9923px;line-height:0.75;font-family:Conthrax;-inkscape-font-specification:Conthrax;text-align:center;text-anchor:middle"
         id="path1324" /><path
         d="m 170.06582,247.88966 v -4.61898 q 0,-0.76983 0.76983,-0.76983 h 3.46424 q 0.76983,0 0.76983,0.76983 v 4.61898 h 6.12365 q 0.62987,0 0.62987,0.62986 v 2.86937 q 0,0.62986 -0.62987,0.62986 h -6.12365 v 8.11822 q 0,1.46967 0.59487,2.16952 0.59487,0.66485 2.34449,0.66485 h 3.39425 q 0.62986,0 0.62986,0.62986 v 2.86937 q 0,0.62986 -0.62986,0.62986 h -4.23407 q -2.09954,0 -3.46424,-0.38491 -1.3647,-0.38492 -2.20451,-1.22473 -0.80482,-0.83982 -1.11976,-2.16952 -0.31493,-1.32971 -0.31493,-3.1843 v -8.11822 h -3.32426 q -0.62987,0 -0.62987,-0.62986 v -2.86937 q 0,-0.62986 0.62987,-0.62986 z"
         style="font-size:34.9923px;line-height:0.75;font-family:Conthrax;-inkscape-font-specification:Conthrax;text-align:center;text-anchor:middle"
         id="path1326" /><path
         d="m 202.67863,247.88966 q 1.78461,0 2.93935,0.31493 1.18974,0.27994 1.85459,0.97979 0.69985,0.66485 0.97979,1.7846 0.27994,1.08477 0.27994,2.65942 v 3.32427 q 0,1.11975 -0.4899,1.57465 -0.48989,0.41991 -1.50466,0.41991 h -17.67111 v 0.83981 q 0,1.64464 0.76983,2.37948 0.80482,0.73484 3.07932,0.73484 h 14.59179 q 0.62986,0 0.62986,0.62986 v 2.93935 q 0,0.62986 -0.62986,0.62986 h -15.08168 q -2.37948,0 -3.98913,-0.38491 -1.57465,-0.38492 -2.55443,-1.22473 -0.9448,-0.87481 -1.3647,-2.20452 -0.41991,-1.3647 -0.41991,-3.25428 v -5.03889 q 0,-1.88959 0.41991,-3.21929 0.4199,-1.3647 1.3647,-2.20452 0.97978,-0.87481 2.55443,-1.25972 1.60965,-0.41991 3.98913,-0.41991 z m -13.612,7.94325 h 14.17188 q 0.59487,0 0.59487,-0.59487 v -1.46967 q 0,-1.08476 -0.4549,-1.53966 -0.4549,-0.4549 -1.67964,-0.4549 h -8.78306 q -2.2745,0 -3.07932,0.73484 -0.76983,0.69984 -0.76983,2.37947 z"
         style="font-size:34.9923px;line-height:0.75;font-family:Conthrax;-inkscape-font-specification:Conthrax;text-align:center;text-anchor:middle"
         id="path1328" /></g></g></svg>
